<?xml version="1.0" encoding="iso-8859-1"?>
<!-- Uploaded to: SVG Repo, www.svgrepo.com, Generator: SVG Repo Mixer Tools -->
<svg height="800px" width="800px" version="1.1" id="Layer_1" xmlns="http://www.w3.org/2000/svg" xmlns:xlink="http://www.w3.org/1999/xlink" 
	 viewBox="0 0 512.004 512.004" xml:space="preserve">
<g>
	<g>
		<path style="fill:#25B99A;" d="M377.494,104.14c-4.799,0-8.678-3.888-8.678-8.678V43.394c0-4.79,3.879-8.678,8.678-8.678
			c4.799,0,8.678,3.888,8.678,8.678v52.068C386.172,100.252,382.293,104.14,377.494,104.14"/>
		<path style="fill:#25B99A;" d="M377.502,52.072c-3.02,0-5.944-1.571-7.541-4.374c-2.386-4.157-0.937-9.459,3.228-11.837
			L433.935,1.15c4.148-2.386,9.459-0.937,11.837,3.228c2.386,4.157,0.937,9.459-3.228,11.837l-60.746,34.712
			C380.444,51.708,378.96,52.072,377.502,52.072"/>
	</g>
	<path style="fill:#CAD3DB;" d="M498.985,147.53H256.002c-4.79,0-8.678-3.888-8.678-8.678V104.14c0-4.79,3.888-8.678,8.678-8.678
		h242.983c4.79,0,8.678,3.888,8.678,8.678v34.712C507.663,143.642,503.775,147.53,498.985,147.53"/>
	<path style="fill:#D18F1A;" d="M308.07,512.004H47.731c-9.589,0-17.356-7.767-17.356-17.356v-34.712h295.051v34.712
		C325.426,504.238,317.659,512.004,308.07,512.004"/>
	<g>
		<path style="fill:#8E4A27;" d="M333.644,459.937H22.157c-9.841,0-17.816-7.975-17.816-17.816v-16.436
			c0-9.841,7.975-17.816,17.816-17.816h311.487c9.841,0,17.816,7.975,17.816,17.816v16.436
			C351.46,451.961,343.485,459.937,333.644,459.937"/>
		<path style="fill:#8E4A27;" d="M31.931,329.767c-12.809,0-24.671,8.556-27.11,21.122c-3.167,16.332,9.876,30.121,25.557,30.946
			c15.013,0.79,26.034-11.195,26.034-26.034h43.39c0,14.379,11.655,26.034,26.034,26.034c14.379,0,26.034-11.655,26.034-26.034
			h52.068c0,14.379,11.655,26.034,26.034,26.034c14.379,0,26.034-11.655,26.034-26.034h43.39c0,14.839,11.021,26.824,26.034,26.034
			c14.076-0.738,26.034-11.941,26.034-26.034c0-13.564-12.47-26.034-26.034-26.034H31.931z"/>
	</g>
	<polygon style="fill:#76A944;" points="30.372,329.767 325.422,329.767 325.422,295.055 30.372,295.055 	"/>
	<path style="fill:#F9EA7F;" d="M299.392,355.801h-43.39c0,14.379-11.655,26.034-26.034,26.034
		c-14.379,0-26.034-11.655-26.034-26.034h-52.068c0,14.379-11.655,26.034-26.034,26.034s-26.034-11.655-26.034-26.034h-43.39
		c0,14.839-11.021,26.824-26.034,26.034v26.034h295.051v-26.034C310.413,382.625,299.392,370.64,299.392,355.801"/>
	<path style="fill:#D18F1A;" d="M177.9,190.92c-104.136,0-173.559,35.797-173.559,86.78v8.574c0,4.851,3.931,8.782,8.782,8.782
		h329.554c4.851,0,8.782-3.931,8.782-8.782v-8.574C351.46,226.716,282.036,190.92,177.9,190.92"/>
	<path style="fill:#E6EEF3;" d="M256.002,147.53l2.473,51.929c57.743,13.486,92.984,41.984,92.984,78.241v8.574
		c0,4.851-3.931,8.782-8.782,8.782h-17.252v34.712c13.564,0,26.034,12.47,26.034,26.034c0,14.102-11.958,25.296-26.034,26.034
		v26.034h8.218c9.841,0,17.816,7.975,17.816,17.816v16.436c0,9.841-7.975,17.816-17.816,17.816h-8.218v34.712
		c0,9.58-7.767,17.356-17.356,17.356h157.028c9.259,0,16.879-7.263,17.321-16.514l16.566-347.96H256.002z"/>
	<path style="fill:#25B99A;" d="M377.494,225.631c-15.525,0-29.817,5.163-41.377,13.772c9.867,11.333,15.343,24.203,15.343,38.296
		v8.574c0,4.851-3.931,8.782-8.782,8.782h-17.252v34.712c13.564,0,26.034,12.47,26.034,26.034c0,1.172-0.2,2.291-0.364,3.419
		c8.14,3.358,17.044,5.259,26.398,5.259c38.339,0,69.424-31.085,69.424-69.424S415.833,225.631,377.494,225.631"/>
</g>
</svg>